<svg class="ic-contact" viewBox="0 0 18 18" width="18" height="18" fill="none">
	<path d="M9 17a8.13 8.13 0 0 1-7.37-4.9C1.21 11.13 1 10.1 1 9s.21-2.14.63-3.11A8.14 8.14 0 0 1 5.9 1.63C6.87 1.21 7.9 1 9 1s2.14.21 3.11.63a8.14 8.14 0 0 1 4.26 4.26c.42.97.63 2 .63 3.11v1.16c0 .79-.27 1.46-.81 2.01a2.88 2.88 0 0 1-3.33.51 3 3 0 0 1-1.02-.84A3.97 3.97 0 0 1 9 13c-1.1 0-2.05-.39-2.83-1.17A3.85 3.85 0 0 1 5 9c0-1.1.39-2.05 1.17-2.83A3.85 3.85 0 0 1 9 5c1.1 0 2.05.39 2.83 1.17A3.85 3.85 0 0 1 13 9v1.16a1.17 1.17 0 0 0 1.2 1.24 1.17 1.17 0 0 0 1.2-1.24V9c0-1.75-.63-3.25-1.89-4.51A6.15 6.15 0 0 0 9 2.6c-1.75 0-3.25.63-4.51 1.89A6.15 6.15 0 0 0 2.6 9c0 1.75.63 3.25 1.89 4.51A6.15 6.15 0 0 0 9 15.4h3.2c.23 0 .42.08.57.23.15.15.23.34.23.57 0 .23-.08.42-.23.57a.77.77 0 0 1-.57.23H9Zm0-5.6c.67 0 1.23-.23 1.7-.7s.7-1.03.7-1.7a2.3 2.3 0 0 0-.7-1.7A2.31 2.31 0 0 0 9 6.6c-.67 0-1.23.23-1.7.7S6.6 8.33 6.6 9c0 .67.23 1.23.7 1.7s1.03.7 1.7.7Z" fill="currentColor">
	</path>
</svg>
