<svg width="16" height="14" viewBox="0 0 16 14" fill="none" xmlns="http://www.w3.org/2000/svg" class="warning">
	<path d="M8.72 8.72V5.6a.79.79 0 0 0-.8-.78.79.79 0 0 0-.79.78v3.13c0 .43.36.78.8.78a.8.8 0 0 0 .8-.78Zm-.79 2.91a.78.78 0 0 0 .8-.79c0-.22-.08-.4-.24-.55a.77.77 0 0 0-.56-.23.78.78 0 0 0-.8.78.77.77 0 0 0 .8.78Z" fill="#fff">
	</path>
	<path fill-rule="evenodd" clip-rule="evenodd" d="M6.98.58a1.19 1.19 0 0 1 2.04 0l6.82 11.67c.45.78-.11 1.75-1.02 1.75H1.18c-.9 0-1.47-.97-1.02-1.75L6.98.58ZM1.46 12.67 8 1.47l6.54 11.2H1.46Z" fill="#fff">
	</path>
</svg>