<svg width="21" height="21" viewBox="0 0 21 21" fill="none" xmlns="http://www.w3.org/2000/svg">
	<path d="M11.218 6.73c.65.13 1.24.44 1.71.91l-.01-.01c.47.46.79 1.05.92 1.7.13.65.06 1.32-.19 1.93-.25.61-.67 1.13-1.22 1.5-.55.37-1.19.57-1.85.57-.44 0-.88-.08-1.28-.25-.4-.17-.77-.41-1.08-.72a3.4 3.4 0 0 1-.72-1.08c-.17-.41-.26-.84-.26-1.28 0-.66.2-1.3.56-1.85.36-.55.88-.98 1.49-1.23s1.28-.32 1.93-.19Z" fill="#fff">
	</path>
	<path fill-rule="evenodd" clip-rule="evenodd" d="M20.512 5.954c.047.988.066 1.387.066 4.026h-.01c.006 1.626.004 2.4-.008 2.989-.009.392-.022.703-.042 1.131-.034.71-.115 1.266-.24 1.746a5.948 5.948 0 0 1-.22.684c-.25.66-.59 1.21-1.15 1.77-.56.56-1.11.9-1.77 1.16-.63.25-1.36.42-2.42.47l-.085.005c-.996.046-1.399.065-4.035.065-2.71.01-3.06 0-4.12-.05-1.07-.05-1.79-.21-2.43-.46-.66-.25-1.21-.6-1.77-1.15-.56-.56-.9-1.11-1.16-1.77-.25-.64-.42-1.37-.47-2.43l-.005-.094C.596 13.058.578 12.66.578 10.02c0-2.72 0-3.06.05-4.12.05-1.07.21-1.79.46-2.43.25-.66.6-1.21 1.15-1.77.56-.56 1.11-.9 1.77-1.16.64-.25 1.37-.42 2.43-.47.536-.026.888-.043 1.457-.054C8.45.005 9.214 0 10.558 0c2.72 0 3.06 0 4.12.05 1.07.05 1.79.21 2.43.46.66.25 1.21.6 1.77 1.15.266.267.483.531.665.806.2.303.358.618.495.964.25.64.42 1.37.47 2.43l.004.094ZM5.448 10.01c0 2.83 2.3 5.12 5.14 5.12s5.13-2.3 5.13-5.14c-.01-2.83-2.32-5.12-5.15-5.12-2.83 0-5.12 2.3-5.12 5.14Zm11.31-4.51c.17-.17.28-.39.33-.62h.01c.05-.23.02-.47-.07-.69-.09-.22-.24-.41-.44-.54-.2-.13-.43-.2-.67-.2-.32 0-.63.12-.85.35-.22.23-.35.53-.35.85 0 .24.07.47.2.67a1.234 1.234 0 0 0 .94.533c.096.005.194-.002.29-.023a1.242 1.242 0 0 0 .61-.33Z" fill="#fff">
	</path>
</svg>
