<svg width="26" height="20" viewBox="0 0 26 20" fill="none" xmlns="http://www.w3.org/2000/svg">
	<path d="M22.628 4.979c.015.217.015.434.015.653 0 6.673-5.07 14.368-14.34 14.368v-.004a14.247 14.247 0 0 1-7.725-2.264 10.108 10.108 0 0 0 7.46-2.093 5.048 5.048 0 0 1-4.71-3.506 5.014 5.014 0 0 0 2.276-.087 5.048 5.048 0 0 1-4.043-4.95v-.064a5 5 0 0 0 2.287.632A5.062 5.062 0 0 1 2.288.92a14.295 14.295 0 0 0 10.387 5.276 5.06 5.06 0 0 1 1.458-4.825 5.039 5.039 0 0 1 7.131.22 10.1 10.1 0 0 0 3.2-1.227 5.067 5.067 0 0 1-2.215 2.793 10.007 10.007 0 0 0 2.894-.795 10.25 10.25 0 0 1-2.515 2.616Z" fill="#fff">
	</path>
</svg>
